<svg width="16" height="10" viewBox="0 0 16 10" fill="none" xmlns="http://www.w3.org/2000/svg">
<path d="M8.97747 4.77C8.97747 7.4044 6.96779 9.54 4.48873 9.54C2.00967 9.54 0 7.4044 0 4.77C0 2.1356 2.00967 0 4.48873 0C6.96779 0 8.97747 2.1356 8.97747 4.77Z" fill="#D9D9D9"/>
<path d="M7.88044 1.97565C8.50215 1.18984 9.34094 0.608185 10.2778 0.313204C11.2147 0.0182228 12.202 0.0248973 13.0998 0.33228C13.9975 0.639663 14.7601 1.23215 15.2793 2.02567C15.7985 2.81919 16.048 3.77345 15.9924 4.75307C15.9367 5.73269 15.5787 6.68791 14.9692 7.48322C14.3598 8.27852 13.5297 8.87353 12.5968 9.18381C11.664 9.49409 10.6757 9.50389 9.77219 9.21182C8.86868 8.91975 8.09585 8.34064 7.56333 7.55666L11.4008 4.76033L7.88044 1.97565Z" fill="black"/>
<path d="M2.72945 6.83575L2.71405 6.54305L3.18395 6.42751C3.18395 6.39157 3.18395 6.33765 3.18395 6.26576C3.18908 6.18873 3.19165 6.09887 3.19165 5.99617C3.19165 5.89347 3.19165 5.78307 3.19165 5.66496C3.19678 5.54686 3.19935 5.42618 3.19935 5.30294V3.85486C3.19935 3.61865 3.19678 3.42096 3.19165 3.26177C3.19165 3.09745 3.18908 2.97164 3.18395 2.88434C3.18395 2.79191 3.17881 2.73543 3.16854 2.71489L2.69094 2.60705L2.71405 2.31436H4.40106C4.8838 2.31436 5.25099 2.40935 5.50263 2.59935C5.75941 2.78421 5.88779 3.05894 5.88779 3.42352C5.88779 3.67514 5.81846 3.90108 5.67981 4.10135C5.54115 4.29648 5.34856 4.45053 5.10206 4.5635C4.85556 4.67647 4.57053 4.73295 4.247 4.73295H3.75399V4.38634H4.19307C4.51148 4.38634 4.75798 4.30675 4.93259 4.14756C5.11233 3.98838 5.2022 3.76757 5.2022 3.48514C5.2022 3.21299 5.12517 3.00759 4.9711 2.86894C4.81704 2.72516 4.59621 2.65327 4.30862 2.65327H3.86183C3.8567 2.66867 3.85156 2.69178 3.84643 2.72259C3.84643 2.74827 3.84643 2.79705 3.84643 2.86894C3.84643 2.94083 3.84643 3.0461 3.84643 3.18474C3.84643 3.32339 3.84643 3.50825 3.84643 3.73933V5.30294C3.84643 5.52375 3.84643 5.70861 3.84643 5.85753C3.85156 6.00644 3.8567 6.12711 3.86183 6.21954C3.8721 6.30684 3.87981 6.37616 3.88494 6.42751L4.33944 6.54305L4.31633 6.83575H2.72945ZM6.3808 6.91277C6.15484 6.91277 5.95456 6.87169 5.77995 6.78953C5.60534 6.70224 5.43587 6.56102 5.27153 6.36589C5.1072 6.16563 4.93002 5.89604 4.74001 5.55713L4.21618 4.60201L4.79393 4.47107L5.62588 5.69577C5.76968 5.90631 5.89806 6.07576 6.01105 6.20414C6.12916 6.32738 6.24471 6.41981 6.35769 6.48143C6.47067 6.54305 6.59393 6.5867 6.72745 6.61237L6.71975 6.88196C6.66839 6.89223 6.6119 6.89994 6.55028 6.90507C6.49378 6.91021 6.43729 6.91277 6.3808 6.91277Z" fill="black"/>
<path d="M12.4189 4.75253L8.25074 7.13374L8.32817 2.24065L12.4189 4.75253Z" fill="black"/>
<path d="M11.3954 7.15933L9.7161 3.01536L9.32323 2.90753L9.34634 2.61483H10.9409L10.9563 2.90753L10.4864 3.01536L11.8114 6.37367H11.6573L12.8976 3.01536L12.3583 2.90753L12.3814 2.61483H13.7988L13.8142 2.90753L13.4291 3.01536L11.719 7.15933H11.3954Z" fill="#F5F5F5"/>
</svg>
