<svg width="426" height="254" viewBox="0 0 426 254" fill="none" xmlns="http://www.w3.org/2000/svg">
<path d="M239 127C239 197.14 185.498 254 119.5 254C53.502 254 0 197.14 0 127C0 56.8598 53.502 0 119.5 0C185.498 0 239 56.8598 239 127Z" fill="#D9D9D9"/>
<path d="M209.795 52.6012C226.346 31.6792 248.677 16.1928 273.618 8.33897C298.559 0.485178 324.845 0.662883 348.745 8.84688C372.645 17.0309 392.947 32.8055 406.77 53.9328C420.592 75.0601 427.234 100.467 425.752 126.549C424.27 152.631 414.74 178.064 398.514 199.239C382.288 220.414 360.19 236.255 335.356 244.516C310.521 252.778 284.21 253.038 260.157 245.262C236.104 237.486 215.529 222.067 201.353 201.194L303.514 126.743L209.795 52.6012Z" fill="black"/>
<path d="M72.6641 182L72.2539 174.207L84.7637 171.131C84.7637 170.174 84.7637 168.738 84.7637 166.824C84.9004 164.773 84.9688 162.381 84.9688 159.646C84.9688 156.912 84.9688 153.973 84.9688 150.828C85.1055 147.684 85.1738 144.471 85.1738 141.189V102.635C85.1738 96.3457 85.1055 91.082 84.9688 86.8438C84.9688 82.4688 84.9004 79.1191 84.7637 76.7949C84.7637 74.334 84.627 72.8301 84.3535 72.2832L71.6387 69.4121L72.2539 61.6191H117.166C130.018 61.6191 139.793 64.1484 146.492 69.207C153.328 74.1289 156.746 81.4434 156.746 91.1504C156.746 97.8496 154.9 103.865 151.209 109.197C147.518 114.393 142.391 118.494 135.828 121.502C129.266 124.51 121.678 126.014 113.064 126.014H99.9395V116.785H111.629C120.105 116.785 126.668 114.666 131.316 110.428C136.102 106.189 138.494 100.311 138.494 92.791C138.494 85.5449 136.443 80.0762 132.342 76.3848C128.24 72.5566 122.361 70.6426 114.705 70.6426H102.811C102.674 71.0527 102.537 71.668 102.4 72.4883C102.4 73.1719 102.4 74.4707 102.4 76.3848C102.4 78.2988 102.4 81.1016 102.4 84.793C102.4 88.4844 102.4 93.4062 102.4 99.5586V141.189C102.4 147.068 102.4 151.99 102.4 155.955C102.537 159.92 102.674 163.133 102.811 165.594C103.084 167.918 103.289 169.764 103.426 171.131L115.525 174.207L114.91 182H72.6641ZM169.871 184.051C163.855 184.051 158.523 182.957 153.875 180.77C149.227 178.445 144.715 174.686 140.34 169.49C135.965 164.158 131.248 156.98 126.189 147.957L112.244 122.527L127.625 119.041L149.773 151.648C153.602 157.254 157.02 161.766 160.027 165.184C163.172 168.465 166.248 170.926 169.256 172.566C172.264 174.207 175.545 175.369 179.1 176.053L178.895 183.23C177.527 183.504 176.023 183.709 174.383 183.846C172.879 183.982 171.375 184.051 169.871 184.051Z" fill="black"/>
<path d="M330.618 126.535L219.653 189.934L221.714 59.6568L330.618 126.535Z" fill="black"/>
<path d="M303.371 190.615L258.664 80.2832L248.205 77.4121L248.82 69.6191H291.271L291.682 77.4121L279.172 80.2832L314.445 169.697H310.344L343.361 80.2832L329.006 77.4121L329.621 69.6191H367.355L367.766 77.4121L357.512 80.2832L311.984 190.615H303.371Z" fill="#F5F5F5"/>
</svg>
